<svg width="1002" height="47" viewBox="0 0 1002 47" fill="none" xmlns="http://www.w3.org/2000/svg" className='path squiggle-animated hidden md:block lg:hidden'>
<path d="M1 15.4804C71.8174 6.36199 144.694 -3.75583 215.571 3.4458C229.933 4.90499 234.495 11.5957 225.866 15.4804L175.66 36.6854C158.829 43.794 169.292 46.0542 181.391 46.4572C258.299 45.981 336.389 36.8115 413.217 30.3851L582.357 16.2368C670.291 8.76254 781.348 5.44028 869.469 10.6656C887.788 11.751 882.908 17.7761 868.642 21.3385C837.01 29.2375 805.039 33.1705 773.731 33.9859C766.735 34.1682 768.544 31.2926 773.653 29.0999C788.74 22.6264 825.413 23.4535 847.232 24.0288L881.408 26.0451C922.045 29.8708 961.339 29.8878 1001 29.0392" stroke="#4D545D" stroke-opacity="0.5" stroke-miterlimit="22.9256"/>
</svg>
