<svg width="652" height="47" viewBox="0 0 652 47" fill="none" xmlns="http://www.w3.org/2000/svg" className="hidden sm:block md:hidden">
<path d="M1 15.4804C47.0313 6.36199 94.4011 -3.75583 140.471 3.4458C149.807 4.90499 152.772 11.5957 147.163 15.4804L114.529 36.6854C103.589 43.794 110.39 46.0542 118.254 46.4572C168.244 45.981 219.003 36.8115 268.941 30.3851L378.882 16.2368C436.039 8.76254 508.226 5.44028 565.505 10.6656C577.412 11.751 574.24 17.7761 564.968 21.3385C544.406 29.2375 523.626 33.1705 503.275 33.9859C498.728 34.1682 499.904 31.2926 503.224 29.0999C513.031 22.6264 536.868 23.4535 551.051 24.0288L573.265 26.0451C599.679 29.8708 625.22 29.8878 651 29.0392" stroke="#4D545D" stroke-opacity="0.5" stroke-miterlimit="22.9256"/>
</svg>
