<svg width="64" height="40" viewBox="0 0 64 40" fill="none" xmlns="http://www.w3.org/2000/svg">
<path fill-rule="evenodd" clip-rule="evenodd" d="M32.6049 27.8485C31.8826 27.5001 32.159 27.5698 31.5877 27.1378C31.3066 26.9264 31.3809 27.0333 31.1348 26.8707C30.5936 26.513 30.9838 26.8149 30.7283 26.5037C29.8852 25.5283 28.8889 24.8873 27.9668 23.9977C27.3491 23.4032 25.9463 21.7844 24.6364 22.3232C24.8942 23.0432 24.8756 22.2605 25.8232 23.1105C28.5893 25.5956 29.7807 29.8133 32.368 32.7629C38.8246 40.1276 53.0431 40.411 59.1258 34.1146C62.7791 30.3312 63.1832 25.9672 63.0322 19.3202L48.8463 19.29V24.1464L57.4489 24.2114C57.8321 33.6919 46.6794 35.0785 38.7248 31.5691C37.2267 30.9072 33.3133 28.7775 32.6072 27.8508L32.6049 27.8485Z" fill="#111821"/>
<path fill-rule="evenodd" clip-rule="evenodd" d="M39.6188 29.458C39.6839 29.4069 39.8232 29.1514 39.8488 29.1328C39.714 28.8564 39.9091 29.0631 39.5329 28.9726C39.224 29.1119 38.7711 28.8146 38.576 28.6985C37.3451 27.9669 36.5113 27.456 35.5614 26.3574C30.9907 21.0737 33.5942 6.75998 46.1288 6.3489C49.4872 6.23974 51.6472 6.97133 54.0463 8.76432L55.9206 10.3947C56.6336 9.96274 57.2955 9.40533 57.9481 8.92225L60.0384 7.24771C59.3161 6.01678 56.3503 3.61065 54.6897 2.79544C47.5084 -0.730143 37.6191 1.1302 32.5816 6.68102C29.8526 9.68868 26.1157 15.0351 28.847 20.6208C29.9548 22.8852 31.6921 24.7758 33.1553 26.1066C34.291 27.1378 37.2522 29.6275 39.6188 29.458Z" fill="#111821"/>
<path fill-rule="evenodd" clip-rule="evenodd" d="M2.42368 13.6579C2.37956 13.6346 2.31917 13.6068 2.2913 13.5905L1.569 13.0052C1.1463 12.406 1.68977 12.701 1.26939 12.3062L1.19275 12.7498C1.2183 14.984 6.02359 17.5527 8.5923 18.4632C10.8451 19.2621 17.0045 21.0249 19.5267 20.6951L23.7096 20.8809C23.7142 19.4107 23.9302 17.0464 23.547 15.8085L8.943 15.855C8.69216 15.5832 8.82687 16.1592 8.67126 15.2697L8.59694 6.77392L23.7096 6.77857L23.7049 1.90128L3.06934 1.90592L3.05541 14.1317L2.42368 13.6579Z" fill="#111821"/>
<path fill-rule="evenodd" clip-rule="evenodd" d="M23.7768 37.7331L23.7977 32.5655C21.2662 32.5539 18.7556 32.5585 16.2449 32.5585C14.7051 32.5585 9.97644 32.749 8.81982 32.4656L8.79892 22.0352L9.3122 22.207C9.68612 22.1304 9.63503 22.0143 9.63503 22.3208C10.2203 22.7296 11.3792 23.0594 11.082 23.4914L11.4628 23.6029L11.3723 23.1314C10.931 21.5405 3.95879 18.3145 3.16449 16.7863C2.87417 17.8872 3.06694 35.0181 3.06462 37.6727L23.7792 37.7331H23.7768Z" fill="#111821"/>
<path fill-rule="evenodd" clip-rule="evenodd" d="M8.94298 15.855L8.90814 6.82736C10.4038 7.11999 22.0908 7.07354 23.8954 6.87613L23.8907 2.44476C23.9604 1.39034 23.9465 2.23109 23.7049 1.90129L23.7096 6.77858L8.59692 6.77394L8.67124 15.2697C8.82685 16.1616 8.69215 15.5833 8.94298 15.855Z" fill="#111821"/>
<path fill-rule="evenodd" clip-rule="evenodd" d="M23.777 37.7331C23.9071 37.5752 24.0441 37.977 24.0046 36.4302C23.9767 35.3061 24.0836 33.3319 23.9117 32.5144C23.0152 32.1892 10.9497 32.375 8.98023 32.3936L8.98487 24.3298C8.98487 23.0106 8.75262 22.1374 9.31235 22.2047L9.63518 22.3185C9.63518 22.012 9.68627 22.1281 9.31235 22.2047L8.79907 22.0329L8.81997 32.4633C9.97891 32.749 14.7052 32.5562 16.2451 32.5562C18.7557 32.5562 21.2664 32.5516 23.7979 32.5632L23.777 37.7308V37.7331Z" fill="#111821"/>
<path fill-rule="evenodd" clip-rule="evenodd" d="M19.5244 20.6974C19.7683 21.1108 23.2149 21.0086 23.8722 20.8995L23.8954 17.0325C23.9209 15.7249 23.9024 16.0338 23.5447 15.8085C23.9302 17.0487 23.7119 19.4107 23.7073 20.8809L19.5244 20.6951V20.6974Z" fill="#111821"/>
<path fill-rule="evenodd" clip-rule="evenodd" d="M1.19045 12.7498L1.26709 12.3062C1.68747 12.701 1.144 12.406 1.56669 13.0053L2.289 13.5905C2.31687 13.6068 2.37725 13.6347 2.42138 13.6579C2.39351 13.6184 2.35403 13.5116 2.33777 13.5418L2.06604 13.2422C0.842069 12.0832 1.87791 12.9124 1.51328 12.0437C1.24154 12.1622 1.15096 12.1691 1 12.2528C1.00232 13.1562 0.986065 12.4804 1.18812 12.7475L1.19045 12.7498Z" fill="#111821"/>
<path fill-rule="evenodd" clip-rule="evenodd" d="M39.6188 29.4579C40.1066 29.2327 39.7605 29.7785 39.9997 29.1374L39.9579 28.6985C39.1567 28.7333 39.7373 28.6451 39.5352 28.9725C39.9115 29.0631 39.7164 28.8564 39.8511 29.1328C39.8255 29.1514 39.6862 29.4069 39.6212 29.4579H39.6188Z" fill="#111821"/>
<path fill-rule="evenodd" clip-rule="evenodd" d="M11.082 23.4891C11.2469 23.6749 11.1192 24.0001 11.5047 23.661C11.9135 23.2987 11.4885 23.2569 11.37 23.1314L11.4606 23.6029L11.0797 23.4914L11.082 23.4891Z" fill="#111821"/>
<path fill-rule="evenodd" clip-rule="evenodd" d="M32.6049 27.8485C32.57 27.809 32.5189 27.6975 32.498 27.7323L30.7283 26.5037C30.9814 26.8149 30.5912 26.513 31.1347 26.8707C31.3809 27.0333 31.3066 26.9264 31.5876 27.1378C32.1589 27.5698 31.8826 27.5001 32.6049 27.8485Z" fill="#111821"/>
</svg>
