<svg width="1440" height="30" viewBox="0 0 1440 30" fill="none" xmlns="http://www.w3.org/2000/svg">
<path d="M0 9.89029C101.977 4.29201 206.919 -1.91986 308.982 2.50161C329.664 3.39748 336.234 7.50525 323.807 9.89029L251.51 22.9092C227.274 27.2735 242.34 28.6612 259.764 28.9086C370.51 28.6163 482.961 22.9866 593.593 19.0411L837.154 10.3547C963.779 5.76584 1123.7 3.72613 1250.6 6.9342C1276.97 7.60061 1269.95 11.2998 1249.41 13.4869C1203.85 18.3365 1157.82 20.7512 1112.73 21.2518C1102.66 21.3638 1105.26 19.5983 1112.62 18.2521C1134.35 14.2776 1187.15 14.7854 1218.57 15.1386L1267.79 16.3765C1326.3 18.7253 1382.89 18.7358 1440 18.2148" stroke="#4D545D" stroke-opacity="0.5" stroke-miterlimit="22.9256"/>
</svg>
