<svg width="32" height="33" viewBox="0 0 32 33" fill="none" xmlns="http://www.w3.org/2000/svg">
<g clip-path="url(#clip0_1138_600)">
<path fill-rule="evenodd" clip-rule="evenodd" d="M7.7778 12.8333L12.1347 15.9209C12.5094 16.192 12.8406 16.4082 13.2065 16.6823C13.404 16.8302 13.5656 16.9238 13.7621 17.0712L16.5 19L25.2222 12.8334V24H7.77775V12.8334L7.7778 12.8333ZM7.7778 9.00002H25.2222C25.0882 9.20023 18.3799 13.9014 17.6107 14.4441C17.2396 14.7059 16.8787 14.9686 16.5 15.2222L12.1431 12.1347C11.6751 11.7962 7.9144 9.20395 7.7778 9.00002ZM4 8.8889V24.1111C4 25.3607 5.13931 26.5 6.3889 26.5H26.6111C27.8607 26.5 29 25.3607 29 24.1111V8.8889C29 7.63931 27.8607 6.5 26.6111 6.5H6.3889C5.13931 6.5 4 7.63931 4 8.8889Z" fill="white"/>
</g>
<defs>
<clipPath id="clip0_1138_600">
<rect width="25" height="20" fill="white" transform="translate(4 6.5)"/>
</clipPath>
</defs>
</svg>
