<!-- <svg width="1440" height="47" viewBox="0 0 1440 47" fill="none" xmlns="http://www.w3.org/2000/svg">
<path d="M0 15.4804C101.977 6.36199 206.919 -3.75583 308.982 3.4458C329.664 4.90499 336.233 11.5957 323.807 15.4804L251.51 36.6854C227.274 43.794 242.34 46.0542 259.764 46.4572C370.51 45.981 482.961 36.8115 593.593 30.3851L837.154 16.2368C963.778 8.76254 1123.7 5.44028 1250.6 10.6656C1276.97 11.751 1269.95 17.7761 1249.41 21.3385C1203.85 29.2375 1157.82 33.1705 1112.73 33.9859C1102.66 34.1682 1105.26 31.2926 1112.62 29.0999C1134.35 22.6264 1187.15 23.4535 1218.57 24.0288L1267.79 26.0451C1326.3 29.8708 1382.89 29.8878 1440 29.0392" stroke="#4D545D" stroke-opacity="0.5" stroke-miterlimit="22.9256"/>
</svg> -->

<svg
					width='1400'
					height='47'
					viewBox='0 0 1400 47'
					fill='none'
					xmlns='http://www.w3.org/2000/svg'
                    className="path squiggle-animated"
				>
					<path						
						d='M0 15.4804C101.977 6.36199 206.919 -3.75583 308.982 3.4458C329.664 4.90499 336.233 11.5957 323.807 15.4804L251.51 36.6854C227.274 43.794 242.34 46.0542 259.764 46.4572C370.51 45.981 482.961 36.8115 593.593 30.3851L837.154 16.2368C963.778 8.76254 1123.7 5.44028 1250.6 10.6656C1276.97 11.751 1269.95 17.7761 1249.41 21.3385C1203.85 29.2375 1157.82 33.1705 1112.73 33.9859C1102.66 34.1682 1105.26 31.2926 1112.62 29.0999C1134.35 22.6264 1187.15 23.4535 1218.57 24.0288L1267.79 26.0451C1326.3 29.8708 1382.89 29.8878 1500 29.0392'
						stroke='#4D545D'
						stroke-opacity='0.5'
						stroke-miterlimit='22.9256'
						stroke-dasharray='2000.00 2000.00'
						stroke-dashoffset='0.00'
					/>
				</svg>


