<svg width="375" height="25" viewBox="0 0 375 25" fill="none" xmlns="http://www.w3.org/2000/svg">
<path d="M0 8.28225C26.5565 3.69657 53.8852 -1.39173 80.4642 2.23C85.85 2.96383 87.5608 6.32861 84.3247 8.28225L65.4975 18.9463C59.1859 22.5213 63.1095 23.6579 67.6468 23.8606C96.487 23.6211 125.771 19.0098 154.582 15.7779L218.009 8.66267C250.984 4.90381 292.63 3.23304 325.676 5.86085C332.545 6.40672 330.716 9.4368 325.366 11.2283C313.504 15.2007 301.515 17.1787 289.774 17.5888C287.151 17.6804 287.829 16.2343 289.745 15.1316C295.403 11.876 309.155 12.292 317.337 12.5813L330.153 13.5953C345.392 15.5192 360.127 15.5278 375 15.1011" stroke="#4D545D" stroke-opacity="0.8" stroke-miterlimit="22.9256"/>
</svg>
